<svg width="510" height="510" viewBox="0 0 510 510" fill="none" xmlns="http://www.w3.org/2000/svg">
<path fill-rule="evenodd" clip-rule="evenodd" d="M254.927 0.682617C292.92 0.691329 330.428 9.21366 364.695 25.6232C398.962 42.0328 429.116 65.9125 452.941 95.5071C476.766 125.102 493.656 159.659 502.37 196.639C511.085 233.62 511.402 272.083 503.298 309.201C495.194 346.32 478.876 381.151 455.542 411.134C432.208 441.118 402.451 465.491 368.46 482.463C334.468 499.435 297.105 508.575 259.118 509.209C221.13 509.844 183.483 501.959 148.943 486.132L22.1863 509.062C19.0049 509.638 15.7277 509.359 12.6889 508.255C9.65005 507.152 6.95819 505.262 4.88769 502.779C2.81718 500.296 1.44206 497.308 0.902466 494.12C0.362877 490.932 0.678119 487.659 1.81606 484.632L38.1681 387.864C14.5556 349.326 1.64013 305.19 0.751222 260.002C-0.13769 214.814 11.0321 170.205 33.1106 130.767C55.1892 91.3298 87.379 58.4886 126.366 35.6244C165.354 12.7602 209.73 0.699114 254.927 0.682617ZM137.094 254.927V255.073L137.057 255.11H136.874V255V254.927L136.947 254.891H137.057L137.094 254.927ZM136.984 218.575C127.324 218.575 118.059 222.413 111.228 229.244C104.397 236.075 100.559 245.34 100.559 255C100.559 264.661 104.397 273.926 111.228 280.757C118.059 287.588 127.324 291.425 136.984 291.425C146.645 291.425 155.909 287.588 162.741 280.757C169.572 273.926 173.409 264.661 173.409 255C173.409 245.34 169.572 236.075 162.741 229.244C155.909 222.413 146.645 218.575 136.984 218.575ZM255.11 255V254.927L255.073 254.891H254.927L254.89 254.927V255.073L254.927 255.11H255.073L255.11 255.073V255ZM218.538 255C218.538 250.215 219.481 245.476 221.312 241.054C223.144 236.633 225.828 232.615 229.212 229.231C232.596 225.847 236.614 223.162 241.035 221.331C245.457 219.5 250.196 218.557 254.982 218.557C259.768 218.557 264.507 219.5 268.928 221.331C273.35 223.162 277.367 225.847 280.751 229.231C284.135 232.615 286.82 236.633 288.651 241.054C290.483 245.476 291.425 250.215 291.425 255C291.425 264.661 287.588 273.926 280.757 280.757C273.926 287.588 264.661 291.425 255 291.425C245.34 291.425 236.075 287.588 229.244 280.757C222.413 273.926 218.575 264.661 218.575 255H218.538ZM373.126 254.927V255.073L373.053 255.11H372.943L372.906 255.073V254.927L372.943 254.891H373.089L373.126 254.927ZM373.016 218.575C363.356 218.575 354.091 222.413 347.26 229.244C340.429 236.075 336.591 245.34 336.591 255C336.591 264.661 340.429 273.926 347.26 280.757C354.091 287.588 363.356 291.425 373.016 291.425C382.677 291.425 391.942 287.588 398.773 280.757C405.604 273.926 409.441 264.661 409.441 255C409.441 245.34 405.604 236.075 398.773 229.244C391.942 222.413 382.677 218.575 373.016 218.575Z" fill="#FF0000"/>
</svg>
