<svg width="512" height="243" viewBox="0 0 512 243" fill="none" xmlns="http://www.w3.org/2000/svg">
<path d="M512 141.942C512 164.774 493.491 183.284 470.658 183.284L82.6832 183.284C59.8509 183.284 41.3416 164.774 41.3416 141.942L41.3416 100.6C41.3416 77.7681 59.8509 59.2588 82.6832 59.2588L470.658 59.2588C493.491 59.2588 512 77.7681 512 100.6L512 141.942Z" fill="#D9071C"/>
<path d="M20.6708 157.074C-6.89025 141.162 -6.89025 101.381 20.6708 85.4683L159.006 5.60042C186.567 -10.312 221.019 9.5785 221.019 41.4033L221.019 201.139C221.019 232.964 186.567 252.855 159.006 236.942L20.6708 157.074Z" fill="#D9071C"/>
</svg>
