<svg width="647" height="739" viewBox="0 0 647 739" fill="none" xmlns="http://www.w3.org/2000/svg">
<path d="M623.077 123.077H430.769V61.5385C430.769 27.6923 403.077 0 369.231 0H276.923C243.077 0 215.385 27.6923 215.385 61.5385V123.077H23.0769C10.7692 123.077 0 133.846 0 146.154V192.308C0 204.615 10.7692 215.385 23.0769 215.385H623.077C635.385 215.385 646.154 204.615 646.154 192.308V146.154C646.154 133.846 635.385 123.077 623.077 123.077ZM276.923 76.9231C276.923 67.6923 283.077 61.5385 292.308 61.5385H353.846C363.077 61.5385 369.231 67.6923 369.231 76.9231V123.077H276.923V76.9231Z" fill="black"/>
<path d="M561.539 276.923H84.6155C72.3078 276.923 61.5386 287.692 61.5386 300V661.538C61.5386 704.615 95.3847 738.462 138.462 738.462H507.692C550.769 738.462 584.615 704.615 584.615 661.538V300C584.615 287.692 573.846 276.923 561.539 276.923ZM276.923 615.385C276.923 624.615 270.769 630.769 261.539 630.769H230.769C221.539 630.769 215.385 624.615 215.385 615.385V400C215.385 390.769 221.539 384.615 230.769 384.615H261.539C270.769 384.615 276.923 390.769 276.923 400V615.385ZM430.769 615.385C430.769 624.615 424.615 630.769 415.385 630.769H384.615C375.385 630.769 369.231 624.615 369.231 615.385V400C369.231 390.769 375.385 384.615 384.615 384.615H415.385C424.615 384.615 430.769 390.769 430.769 400V615.385Z" fill="black"/>
</svg>
