<svg width="6118" height="626" viewBox="0 0 6118 626" fill="none" xmlns="http://www.w3.org/2000/svg">
<path d="M370.576 157.984V498H276.408V458.816C251.971 488.309 216.579 503.056 170.232 503.056C138.211 503.056 109.139 495.893 83.016 481.568C57.3147 467.243 37.0907 446.808 22.344 420.264C7.59733 393.72 0.224001 362.963 0.224001 327.992C0.224001 293.021 7.59733 262.264 22.344 235.72C37.0907 209.176 57.3147 188.741 83.016 174.416C109.139 160.091 138.211 152.928 170.232 152.928C213.629 152.928 247.547 166.621 271.984 194.008V157.984H370.576ZM187.296 422.16C212.155 422.16 232.8 413.733 249.232 396.88C265.664 379.605 273.88 356.643 273.88 327.992C273.88 299.341 265.664 276.589 249.232 259.736C232.8 242.461 212.155 233.824 187.296 233.824C162.016 233.824 141.16 242.461 124.728 259.736C108.296 276.589 100.08 299.341 100.08 327.992C100.08 356.643 108.296 379.605 124.728 396.88C141.16 413.733 162.016 422.16 187.296 422.16ZM808.192 29.056V498H714.024V458.816C689.586 488.309 654.194 503.056 607.848 503.056C575.826 503.056 546.754 495.893 520.632 481.568C494.93 467.243 474.706 446.808 459.96 420.264C445.213 393.72 437.84 362.963 437.84 327.992C437.84 293.021 445.213 262.264 459.96 235.72C474.706 209.176 494.93 188.741 520.632 174.416C546.754 160.091 575.826 152.928 607.848 152.928C651.245 152.928 685.162 166.621 709.6 194.008V29.056H808.192ZM624.912 422.16C649.77 422.16 670.416 413.733 686.848 396.88C703.28 379.605 711.496 356.643 711.496 327.992C711.496 299.341 703.28 276.589 686.848 259.736C670.416 242.461 649.77 233.824 624.912 233.824C599.632 233.824 578.776 242.461 562.344 259.736C545.912 276.589 537.696 299.341 537.696 327.992C537.696 356.643 545.912 379.605 562.344 396.88C578.776 413.733 599.632 422.16 624.912 422.16ZM1334.89 152.928C1377.44 152.928 1411.15 165.568 1436.01 190.848C1461.29 215.707 1473.93 253.205 1473.93 303.344V498H1375.34V318.512C1375.34 291.547 1369.65 271.533 1358.27 258.472C1347.32 244.989 1331.52 238.248 1310.87 238.248C1287.7 238.248 1269.37 245.832 1255.89 261C1242.41 275.747 1235.67 297.867 1235.67 327.36V498H1137.07V318.512C1137.07 265.003 1115.59 238.248 1072.61 238.248C1049.86 238.248 1031.74 245.832 1018.26 261C1004.77 275.747 998.034 297.867 998.034 327.36V498H899.442V157.984H993.61V197.168C1006.25 182.843 1021.63 171.888 1039.75 164.304C1058.28 156.72 1078.51 152.928 1100.42 152.928C1124.43 152.928 1146.13 157.773 1165.51 167.464C1184.89 176.733 1200.48 190.427 1212.28 208.544C1226.19 190.848 1243.67 177.155 1264.74 167.464C1286.23 157.773 1309.61 152.928 1334.89 152.928ZM1562.3 157.984H1660.89V498H1562.3V157.984ZM1611.6 110.584C1593.48 110.584 1578.73 105.317 1567.36 94.784C1555.98 84.2506 1550.29 71.1893 1550.29 55.6C1550.29 40.0106 1555.98 26.9493 1567.36 16.416C1578.73 5.88264 1593.48 0.615962 1611.6 0.615962C1629.71 0.615962 1644.46 5.67197 1655.84 15.784C1667.21 25.896 1672.9 38.536 1672.9 53.704C1672.9 70.136 1667.21 83.8293 1655.84 94.784C1644.46 105.317 1629.71 110.584 1611.6 110.584ZM1959.06 152.928C2001.19 152.928 2035.11 165.568 2060.81 190.848C2086.93 216.128 2099.99 253.627 2099.99 303.344V498H2001.4V318.512C2001.4 291.547 1995.5 271.533 1983.71 258.472C1971.91 244.989 1954.85 238.248 1932.51 238.248C1907.66 238.248 1887.85 246.043 1873.11 261.632C1858.36 276.8 1850.99 299.552 1850.99 329.888V498H1752.39V157.984H1846.56V197.8C1859.62 183.475 1875.85 172.52 1895.23 164.936C1914.61 156.931 1935.89 152.928 1959.06 152.928ZM2226.65 503.056C2209.38 503.056 2194.84 497.157 2183.04 485.36C2171.25 473.563 2165.35 458.816 2165.35 441.12C2165.35 423.003 2171.25 408.467 2183.04 397.512C2194.84 386.136 2209.38 380.448 2226.65 380.448C2243.93 380.448 2258.46 386.136 2270.26 397.512C2282.06 408.467 2287.96 423.003 2287.96 441.12C2287.96 458.816 2282.06 473.563 2270.26 485.36C2258.46 497.157 2243.93 503.056 2226.65 503.056ZM2790.22 152.928C2832.77 152.928 2866.48 165.568 2891.34 190.848C2916.62 215.707 2929.26 253.205 2929.26 303.344V498H2830.67V318.512C2830.67 291.547 2824.98 271.533 2813.6 258.472C2802.65 244.989 2786.85 238.248 2766.2 238.248C2743.03 238.248 2724.7 245.832 2711.22 261C2697.73 275.747 2690.99 297.867 2690.99 327.36V498H2592.4V318.512C2592.4 265.003 2570.91 238.248 2527.94 238.248C2505.19 238.248 2487.07 245.832 2473.59 261C2460.1 275.747 2453.36 297.867 2453.36 327.36V498H2354.77V157.984H2448.94V197.168C2461.58 182.843 2476.96 171.888 2495.07 164.304C2513.61 156.72 2533.84 152.928 2555.75 152.928C2579.76 152.928 2601.46 157.773 2620.84 167.464C2640.22 176.733 2655.81 190.427 2667.61 208.544C2681.51 190.848 2699 177.155 2720.07 167.464C2741.55 157.773 2764.94 152.928 2790.22 152.928ZM3360.17 157.984V441.12C3360.17 503.477 3344.37 549.824 3312.77 580.16C3281.17 610.496 3235.25 625.664 3175 625.664C3142.98 625.664 3112.64 621.661 3083.99 613.656C3055.76 605.651 3031.95 594.064 3012.57 578.896L3051.76 508.112C3066.08 519.909 3083.57 529.179 3104.21 535.92C3124.86 542.661 3145.71 546.032 3166.78 546.032C3199.65 546.032 3223.66 538.448 3238.83 523.28C3254 508.112 3261.58 484.939 3261.58 453.76V442.384C3248.94 455.024 3233.98 464.715 3216.71 471.456C3199.43 478.197 3180.9 481.568 3161.09 481.568C3116.43 481.568 3081.04 468.928 3054.92 443.648C3028.79 417.947 3015.73 379.605 3015.73 328.624V157.984H3114.33V314.088C3114.33 369.283 3137.29 396.88 3183.21 396.88C3206.81 396.88 3225.77 389.296 3240.09 374.128C3254.42 358.539 3261.58 335.576 3261.58 305.24V157.984H3360.17ZM3652.49 152.928C3684.09 152.928 3712.74 160.301 3738.44 175.048C3764.56 189.373 3785 209.808 3799.74 236.352C3814.49 262.475 3821.86 293.021 3821.86 327.992C3821.86 362.963 3814.49 393.72 3799.74 420.264C3785 446.387 3764.56 466.821 3738.44 481.568C3712.74 495.893 3684.09 503.056 3652.49 503.056C3605.72 503.056 3570.12 488.309 3545.68 458.816V498H3451.51V29.056H3550.1V194.008C3574.96 166.621 3609.09 152.928 3652.49 152.928ZM3635.42 422.16C3660.7 422.16 3681.35 413.733 3697.36 396.88C3713.79 379.605 3722.01 356.643 3722.01 327.992C3722.01 299.341 3713.79 276.589 3697.36 259.736C3681.35 242.461 3660.7 233.824 3635.42 233.824C3610.14 233.824 3589.29 242.461 3572.86 259.736C3556.85 276.589 3548.84 299.341 3548.84 327.992C3548.84 356.643 3556.85 379.605 3572.86 396.88C3589.29 413.733 3610.14 422.16 3635.42 422.16ZM4049.66 503.056C4013.84 503.056 3981.61 495.683 3952.96 480.936C3924.73 465.768 3902.61 444.912 3886.6 418.368C3870.59 391.824 3862.58 361.699 3862.58 327.992C3862.58 294.285 3870.59 264.16 3886.6 237.616C3902.61 211.072 3924.73 190.427 3952.96 175.68C3981.61 160.512 4013.84 152.928 4049.66 152.928C4085.47 152.928 4117.49 160.512 4145.72 175.68C4173.95 190.427 4196.07 211.072 4212.08 237.616C4228.09 264.16 4236.1 294.285 4236.1 327.992C4236.1 361.699 4228.09 391.824 4212.08 418.368C4196.07 444.912 4173.95 465.768 4145.72 480.936C4117.49 495.683 4085.47 503.056 4049.66 503.056ZM4049.66 422.16C4074.94 422.16 4095.58 413.733 4111.59 396.88C4128.02 379.605 4136.24 356.643 4136.24 327.992C4136.24 299.341 4128.02 276.589 4111.59 259.736C4095.58 242.461 4074.94 233.824 4049.66 233.824C4024.38 233.824 4003.52 242.461 3987.09 259.736C3970.66 276.589 3962.44 299.341 3962.44 327.992C3962.44 356.643 3970.66 379.605 3987.09 396.88C4003.52 413.733 4024.38 422.16 4049.66 422.16ZM4648.33 29.056V498H4554.16V458.816C4529.73 488.309 4494.33 503.056 4447.99 503.056C4415.97 503.056 4386.89 495.893 4360.77 481.568C4335.07 467.243 4314.85 446.808 4300.1 420.264C4285.35 393.72 4277.98 362.963 4277.98 327.992C4277.98 293.021 4285.35 262.264 4300.1 235.72C4314.85 209.176 4335.07 188.741 4360.77 174.416C4386.89 160.091 4415.97 152.928 4447.99 152.928C4491.39 152.928 4525.3 166.621 4549.74 194.008V29.056H4648.33ZM4465.05 422.16C4489.91 422.16 4510.56 413.733 4526.99 396.88C4543.42 379.605 4551.64 356.643 4551.64 327.992C4551.64 299.341 4543.42 276.589 4526.99 259.736C4510.56 242.461 4489.91 233.824 4465.05 233.824C4439.77 233.824 4418.92 242.461 4402.48 259.736C4386.05 276.589 4377.84 299.341 4377.84 327.992C4377.84 356.643 4386.05 379.605 4402.48 396.88C4418.92 413.733 4439.77 422.16 4465.05 422.16ZM5082.13 157.984V441.12C5082.13 503.477 5066.33 549.824 5034.73 580.16C5003.13 610.496 4957.2 625.664 4896.95 625.664C4864.93 625.664 4834.59 621.661 4805.94 613.656C4777.71 605.651 4753.91 594.064 4734.53 578.896L4773.71 508.112C4788.04 519.909 4805.52 529.179 4826.17 535.92C4846.81 542.661 4867.67 546.032 4888.73 546.032C4921.6 546.032 4945.61 538.448 4960.78 523.28C4975.95 508.112 4983.53 484.939 4983.53 453.76V442.384C4970.89 455.024 4955.94 464.715 4938.66 471.456C4921.39 478.197 4902.85 481.568 4883.05 481.568C4838.38 481.568 4802.99 468.928 4776.87 443.648C4750.75 417.947 4737.69 379.605 4737.69 328.624V157.984H4836.28V314.088C4836.28 369.283 4859.24 396.88 4905.17 396.88C4928.76 396.88 4947.72 389.296 4962.05 374.128C4976.37 358.539 4983.53 335.576 4983.53 305.24V157.984H5082.13ZM5210.75 503.056C5193.48 503.056 5178.94 497.157 5167.14 485.36C5155.35 473.563 5149.45 458.816 5149.45 441.12C5149.45 423.003 5155.35 408.467 5167.14 397.512C5178.94 386.136 5193.48 380.448 5210.75 380.448C5228.03 380.448 5242.56 386.136 5254.36 397.512C5266.16 408.467 5272.06 423.003 5272.06 441.12C5272.06 458.816 5266.16 473.563 5254.36 485.36C5242.56 497.157 5228.03 503.056 5210.75 503.056ZM5539.85 152.928C5571.45 152.928 5600.1 160.301 5625.8 175.048C5651.92 189.373 5672.36 209.808 5687.1 236.352C5701.85 262.475 5709.22 293.021 5709.22 327.992C5709.22 362.963 5701.85 393.72 5687.1 420.264C5672.36 446.387 5651.92 466.821 5625.8 481.568C5600.1 495.893 5571.45 503.056 5539.85 503.056C5493.08 503.056 5457.48 488.309 5433.04 458.816V498H5338.87V29.056H5437.46V194.008C5462.32 166.621 5496.45 152.928 5539.85 152.928ZM5522.78 422.16C5548.06 422.16 5568.71 413.733 5584.72 396.88C5601.15 379.605 5609.37 356.643 5609.37 327.992C5609.37 299.341 5601.15 276.589 5584.72 259.736C5568.71 242.461 5548.06 233.824 5522.78 233.824C5497.5 233.824 5476.65 242.461 5460.22 259.736C5444.2 276.589 5436.2 299.341 5436.2 327.992C5436.2 356.643 5444.2 379.605 5460.22 396.88C5476.65 413.733 5497.5 422.16 5522.78 422.16ZM6117.77 157.984V441.12C6117.77 503.477 6101.97 549.824 6070.37 580.16C6038.77 610.496 5992.84 625.664 5932.59 625.664C5900.57 625.664 5870.23 621.661 5841.58 613.656C5813.35 605.651 5789.55 594.064 5770.17 578.896L5809.35 508.112C5823.68 519.909 5841.16 529.179 5861.81 535.92C5882.45 542.661 5903.31 546.032 5924.37 546.032C5957.24 546.032 5981.25 538.448 5996.42 523.28C6011.59 508.112 6019.17 484.939 6019.17 453.76V442.384C6006.53 455.024 5991.58 464.715 5974.3 471.456C5957.03 478.197 5938.49 481.568 5918.69 481.568C5874.03 481.568 5838.63 468.928 5812.51 443.648C5786.39 417.947 5773.33 379.605 5773.33 328.624V157.984H5871.92V314.088C5871.92 369.283 5894.88 396.88 5940.81 396.88C5964.4 396.88 5983.36 389.296 5997.69 374.128C6012.01 358.539 6019.17 335.576 6019.17 305.24V157.984H6117.77Z" fill="#FF0000"/>
</svg>
