<svg width="667" height="667" viewBox="0 0 667 667" fill="none" xmlns="http://www.w3.org/2000/svg">
<path d="M632.96 76.1637L588.016 31.0297C546.816 -10.3432 483.146 -10.3432 441.946 31.0297L367.04 110.014L558.053 301.833L636.703 222.849C655.43 204.043 666.666 177.715 666.666 151.387C666.666 125.059 651.686 94.9694 632.96 76.1637Z" fill="#030D45"/>
<path d="M475.657 298.073L325.843 147.626L29.9627 444.757C11.236 463.563 0 489.893 0 519.98V636.577C0 651.623 11.236 666.667 29.9627 666.667H149.813C176.03 666.667 202.247 655.383 224.719 636.577L520.6 339.447L475.657 298.073Z" fill="#030D45"/>
</svg>
